<svg width="16" height="12" viewBox="0 0 16 12" fill="none" xmlns="http://www.w3.org/2000/svg">
<path d="M1.83828 0C1.09896 0 0.5 0.559989 0.5 1.24998V10.7448C0.5 11.4348 1.10003 11.9948 1.83828 11.9948H2.37402C3.11335 11.9948 3.71231 11.4348 3.71231 10.7448V1.24898C3.71231 0.558989 3.11228 0 2.37295 0H1.83828ZM6.121 0C5.38168 0 4.78165 0.559989 4.78165 1.24998V10.7448C4.78165 11.4348 5.38168 11.9948 6.121 11.9948H6.65674C7.01159 11.9942 7.35171 11.8623 7.60242 11.6279C7.85314 11.3936 7.99395 11.076 7.99395 10.7448V1.24898C7.99367 0.917808 7.85258 0.60028 7.60166 0.366109C7.35075 0.131938 7.01052 0.000264828 6.65567 0H6.121ZM12.2563 2.77695C12.1276 2.47901 11.881 2.23874 11.5676 2.10598C11.2542 1.97323 10.898 1.95818 10.573 2.06396L9.94941 2.26796C9.77877 2.32386 9.62203 2.41145 9.48864 2.52542C9.35525 2.63939 9.24798 2.7774 9.17328 2.93111C9.09859 3.08482 9.05803 3.25106 9.05404 3.4198C9.05005 3.58854 9.08272 3.75629 9.15008 3.91292L12.297 11.2168C12.5638 11.8368 13.3042 12.1498 13.9803 11.9298L14.6039 11.7258C14.7747 11.6699 14.9316 11.5823 15.065 11.4682C15.1985 11.3542 15.3059 11.2161 15.3806 11.0622C15.4553 10.9084 15.4958 10.742 15.4997 10.5732C15.5036 10.4043 15.4708 10.2365 15.4033 10.0798L12.2563 2.77695Z" fill="white"/>
</svg>
