<svg width="28" height="26" viewBox="0 0 28 26" fill="none" xmlns="http://www.w3.org/2000/svg">
<path d="M2.49813 0C1.11806 0 0 1.21331 0 2.70828V23.2804C0 24.7753 1.12006 25.9887 2.49813 25.9887H3.49818C4.87825 25.9887 5.9963 24.7753 5.9963 23.2804V2.70611C5.9963 1.21114 4.87625 0 3.49618 0H2.49813ZM10.4925 0C9.11246 0 7.9924 1.21331 7.9924 2.70828V23.2804C7.9924 24.7753 9.11246 25.9887 10.4925 25.9887H11.4926C12.155 25.9875 12.7899 25.7017 13.2579 25.1939C13.7259 24.6861 13.9887 23.9979 13.9887 23.2804V2.70611C13.9882 1.98858 13.7248 1.30061 13.2564 0.793236C12.7881 0.285865 12.153 0.000573795 11.4906 0H10.4925ZM21.9451 6.01672C21.7049 5.37119 21.2446 4.8506 20.6595 4.56297C20.0744 4.27533 19.4096 4.24272 18.803 4.47191L17.6389 4.9139C17.3204 5.03504 17.0278 5.2248 16.7788 5.47174C16.5298 5.71868 16.3296 6.01769 16.1901 6.35074C16.0507 6.68378 15.975 7.04396 15.9675 7.40957C15.9601 7.77517 16.0211 8.13862 16.1468 8.478L22.0211 24.303C22.5191 25.6463 23.9012 26.3245 25.1633 25.8478L26.3273 25.4058C26.6461 25.2847 26.9389 25.0949 27.1881 24.8478C27.4372 24.6007 27.6376 24.3015 27.777 23.9682C27.9165 23.6349 27.9921 23.2744 27.9994 22.9086C28.0067 22.5427 27.9455 22.1791 27.8194 21.8396L21.9451 6.01672Z" fill="black"/>
</svg>
