<svg width="30" height="24" viewBox="0 0 30 24" fill="none" xmlns="http://www.w3.org/2000/svg">
<path d="M2.67656 0C1.19792 0 0 1.11998 0 2.49995V21.4896C0 22.8696 1.20006 23.9895 2.67656 23.9895H3.74805C5.22669 23.9895 6.42461 22.8696 6.42461 21.4896V2.49795C6.42461 1.11798 5.22455 0 3.7459 0H2.67656ZM11.242 0C9.76335 0 8.56329 1.11998 8.56329 2.49995V21.4896C8.56329 22.8696 9.76335 23.9895 11.242 23.9895H12.3135C13.0232 23.9885 13.7034 23.7246 14.2048 23.2559C14.7063 22.7872 14.9879 22.1519 14.9879 21.4896V2.49795C14.9873 1.83562 14.7052 1.20056 14.2033 0.732218C13.7015 0.263876 13.021 0.000529657 12.3113 0H11.242ZM23.5126 5.55389C23.2553 4.95802 22.762 4.47748 22.1352 4.21197C21.5083 3.94646 20.796 3.91636 20.146 4.12792L18.8988 4.53591C18.5575 4.64773 18.2441 4.82289 17.9773 5.05084C17.7105 5.27878 17.496 5.55479 17.3466 5.86222C17.1972 6.16964 17.1161 6.50212 17.1081 6.8396C17.1001 7.17708 17.1654 7.51257 17.3002 7.82585L23.5941 22.4336C24.1277 23.6735 25.6084 24.2995 26.9607 23.8595L28.2079 23.4515C28.5494 23.3397 28.8631 23.1645 29.1301 22.9364C29.397 22.7083 29.6117 22.4321 29.7611 22.1245C29.9105 21.8168 29.9916 21.4841 29.9994 21.1464C30.0072 20.8087 29.9416 20.473 29.8065 20.1596L23.5126 5.55389Z" fill="black" fill-opacity="0.2"/>
</svg>
