<svg width="110" height="34" viewBox="0 0 110 34" fill="none" xmlns="http://www.w3.org/2000/svg">
<path d="M110 25.1997V30.1167H78.3852V25.1997H110ZM104.968 21.8961L98.8983 22.7193V16.82H81.612V11.9414H98.8983V7.95183H81.612V3.07324H104.968V21.8961Z" fill="#59BFAE"/>
<path d="M72.5839 0V32.9592L66.8986 33.8044V17.8625H65.0163V31.4995L59.4463 32.3446V0.460969H65.0163V13.0608H66.8986V0H72.5839ZM40.1848 23.6246L45.1018 16.1339C45.5884 15.3656 45.9213 14.7254 46.1006 14.2132C46.2798 13.6754 46.3695 13.0992 46.3695 12.4846V10.487H41.1452V5.60844H46.4079V0.460952H51.7474V5.60844H56.8949V10.487H51.6706V12.4846C51.6706 13.0992 51.7603 13.6754 51.9395 14.2132C52.1188 14.7254 52.4517 15.3656 52.9383 16.1339L57.8553 23.6246L53.4761 26.4673L49.02 19.668L44.564 26.4673L40.1848 23.6246Z" fill="#59BFAE"/>
<path d="M11.0609 21.0605C9.38965 17.5091 5.12363 15.5385 1.23143 15.82L0 21.4936C4.06812 21.4936 7.03674 24.1355 8.46608 28.2067H14.2274C16.4264 19.8262 22.9134 13.2214 31.0056 11.424L28.6747 5.70703C22.2317 6.50827 13.1499 12.7883 11.0609 21.0605Z" fill="#59BFAE"/>
</svg>
