<svg width="183" height="109" viewBox="0 0 183 109" fill="none" xmlns="http://www.w3.org/2000/svg">
<path opacity="0.2" fill-rule="evenodd" clip-rule="evenodd" d="M89.6366 55.7611C82.9683 63.5978 77.7896 72.6421 75.3113 82.4557C69.2206 69.5125 53.673 62.3306 39.4879 63.3566L35 84.0342C49.8262 84.0342 60.6454 93.6627 65.8546 108.5H86.8518C90.048 96.3188 95.73 85.167 103.278 75.7454C102.392 74.9839 101.533 74.187 100.701 73.3555C95.6927 68.3471 91.9373 62.32 89.6366 55.7611ZM122.852 57.9521C130.501 52.984 138.976 49.3396 148 47.3354L139.505 26.5C131.476 27.4985 122.322 30.8317 113.447 35.9915C113.152 37.3906 113 38.8266 113 40.2783C113 45.789 115.189 51.074 119.086 54.9707C120.231 56.1161 121.497 57.114 122.852 57.9521Z" fill="black"/>
<g opacity="0.1">
<path fill-rule="evenodd" clip-rule="evenodd" d="M118.364 3.066C123.251 1.04183 128.489 0 133.778 0C139.068 0 144.305 1.04183 149.192 3.066C154.079 5.09017 158.519 8.05705 162.259 11.7972C165.999 15.5374 168.966 19.9777 170.991 24.8644C173.015 29.7512 174.057 34.9888 174.057 40.2783C174.057 45.5677 173.015 50.8053 170.991 55.6921C169.802 58.5625 168.287 61.2789 166.482 63.7898L180.596 77.9038C183.135 80.4422 183.135 84.5578 180.596 87.0962C178.058 89.6346 173.942 89.6346 171.404 87.0962L157.29 72.9823C150.484 77.8755 142.269 80.5565 133.778 80.5565C123.096 80.5565 112.851 76.3129 105.297 68.7593C97.7436 61.2057 93.5 50.9607 93.5 40.2783C93.5 29.5958 97.7436 19.3509 105.297 11.7972C109.037 8.05705 113.478 5.09017 118.364 3.066ZM133.778 13C130.196 13 126.649 13.7056 123.339 15.0764C120.03 16.4473 117.023 18.4566 114.49 20.9896C109.374 26.1053 106.5 33.0436 106.5 40.2783C106.5 47.5129 109.374 54.4512 114.49 59.5669C119.605 64.6826 126.544 67.5565 133.778 67.5565C141.013 67.5565 147.951 64.6826 153.067 59.5669C155.6 57.0339 157.609 54.0268 158.98 50.7172C160.351 47.4076 161.057 43.8605 161.057 40.2783C161.057 36.696 160.351 33.1489 158.98 29.8393C157.609 26.5298 155.6 23.5226 153.067 20.9896C150.534 18.4566 147.527 16.4473 144.217 15.0764C140.908 13.7056 137.36 13 133.778 13Z" fill="black"/>
<path d="M17.9262 59.32C17.1502 58.5862 16.0977 58.1739 15.0002 58.1739C13.9028 58.1739 12.8502 58.5862 12.0742 59.32C11.2982 60.0539 10.8622 61.0492 10.8622 62.087C10.8622 63.1248 11.2982 64.1201 12.0742 64.8539C12.8502 65.5877 13.9028 66 15.0002 66C16.0977 66 17.1502 65.5877 17.9262 64.8539C18.7022 64.1201 19.1382 63.1248 19.1382 62.087C19.1382 61.0492 18.7022 60.0539 17.9262 59.32Z" fill="black"/>
<path d="M24.5498 24.2463C21.8621 22.1479 18.4856 21.0001 15.0002 21C11.0219 21 7.20655 22.4945 4.39346 25.1546C1.58038 27.8148 0 31.4227 0 35.1848C0 36.2226 0.435966 37.2179 1.21199 37.9517C1.98801 38.6856 3.04053 39.0978 4.13799 39.0978C5.23545 39.0978 6.28797 38.6856 7.06399 37.9517C7.84001 37.2179 8.27598 36.2226 8.27598 35.1848C8.27519 34.029 8.60735 32.8948 9.2368 31.904C9.86625 30.9132 10.7692 30.1033 11.8487 29.5612C12.9282 29.0191 14.1434 28.7654 15.364 28.8271C16.5845 28.8889 17.7641 29.2639 18.7763 29.9119C19.7884 30.5598 20.5948 31.4563 21.1088 32.5049C21.6228 33.5535 21.8251 34.7148 21.6938 35.8639C21.5626 37.0131 21.1028 38.1067 20.3638 39.0273C19.6249 39.948 18.6347 40.6609 17.4996 41.0896C14.7106 42.15 10.8622 44.8578 10.8622 49.3696V50.3478L10.8912 50.8057C11.0158 51.796 11.5355 52.704 12.3443 53.3442C13.1531 53.9843 14.1898 54.3083 15.2427 54.2498C16.2956 54.1914 17.2851 53.7549 18.0092 53.0297C18.7332 52.3045 19.137 51.3452 19.1382 50.3478L19.1092 49.843C19.1051 49.5848 19.1341 49.3343 19.3161 49.1387C19.6671 48.788 20.099 48.5188 20.5782 48.3522C23.8136 47.1265 26.4966 44.8736 28.1664 41.9806C29.8362 39.0876 30.3886 35.735 29.7286 32.4988C29.0686 29.2625 27.2375 26.3446 24.5498 24.2463Z" fill="black"/>
</g>
</svg>
