<svg width="24" height="25" viewBox="0 0 24 25" fill="none" xmlns="http://www.w3.org/2000/svg">
<path d="M24 23.4127V9.92064C24 9.67421 23.9458 9.43118 23.8416 9.21077C23.7375 8.99037 23.5863 8.79865 23.4 8.65079L12.9 0.31746C12.6404 0.111393 12.3246 0 12 0C11.6754 0 11.3596 0.111393 11.1 0.31746L0.6 8.65079C0.413706 8.79865 0.262501 8.99037 0.158359 9.21077C0.0542175 9.43118 0 9.67421 0 9.92064V23.4127C0 23.8337 0.158036 24.2374 0.43934 24.5351C0.720645 24.8328 1.10218 25 1.5 25H7.5C7.89782 25 8.27935 24.8328 8.56066 24.5351C8.84196 24.2374 9 23.8337 9 23.4127V18.6508C9 18.2298 9.15804 17.8261 9.43934 17.5284C9.72065 17.2307 10.1022 17.0635 10.5 17.0635H13.5C13.8978 17.0635 14.2794 17.2307 14.5607 17.5284C14.842 17.8261 15 18.2298 15 18.6508V23.4127C15 23.8337 15.158 24.2374 15.4393 24.5351C15.7206 24.8328 16.1022 25 16.5 25H22.5C22.8978 25 23.2794 24.8328 23.5607 24.5351C23.842 24.2374 24 23.8337 24 23.4127Z" fill="black"/>
</svg>
