<svg width="20" height="19" viewBox="0 0 20 19" fill="none" xmlns="http://www.w3.org/2000/svg">
<path d="M19.4959 8.69553L15.4757 12.1117L16.7005 17.2205C16.7681 17.4978 16.7507 17.7887 16.6505 18.0563C16.5503 18.3239 16.3718 18.5562 16.1376 18.724C15.9034 18.8918 15.624 18.9874 15.3346 18.9988C15.0452 19.0103 14.7588 18.937 14.5117 18.7883L10.0002 16.0539L5.48595 18.7883C5.23886 18.9361 4.95287 19.0087 4.66399 18.9969C4.3751 18.985 4.09623 18.8892 3.8625 18.7216C3.62878 18.554 3.45064 18.322 3.35051 18.0549C3.25039 17.7878 3.23277 17.4975 3.29985 17.2205L4.52914 12.1117L0.508946 8.69553C0.290335 8.50947 0.132231 8.26411 0.05438 7.99008C-0.0234711 7.71606 -0.0176192 7.42553 0.0712046 7.15476C0.160028 6.884 0.327888 6.645 0.553819 6.46762C0.77975 6.29024 1.05374 6.18234 1.34157 6.15739L6.6125 5.73862L8.64582 0.892845C8.75588 0.628753 8.9432 0.402855 9.18396 0.243872C9.42473 0.0848881 9.70806 0 9.99795 0C10.2878 0 10.5712 0.0848881 10.8119 0.243872C11.0527 0.402855 11.24 0.628753 11.3501 0.892845L13.3825 5.73862L18.6534 6.15739C18.9418 6.18141 19.2166 6.28871 19.4434 6.46585C19.6701 6.64298 19.8388 6.88207 19.9281 7.15317C20.0175 7.42426 20.0237 7.7153 19.9458 7.98982C19.868 8.26434 19.7096 8.51014 19.4905 8.69641L19.4959 8.69553Z" fill="black"/>
</svg>
