<svg width="30" height="30" viewBox="0 0 30 30" fill="none" xmlns="http://www.w3.org/2000/svg">
<path d="M2 24.75V5.25C2 4.38805 2.34241 3.5614 2.9519 2.9519C3.5614 2.34241 4.38805 2 5.25 2H24.75C25.612 2 26.4386 2.34241 27.0481 2.9519C27.6576 3.5614 28 4.38805 28 5.25V24.75C28 25.612 27.6576 26.4386 27.0481 27.0481C26.4386 27.6576 25.612 28 24.75 28H5.25C4.38805 28 3.5614 27.6576 2.9519 27.0481C2.34241 26.4386 2 25.612 2 24.75Z" stroke="black" stroke-opacity="0.2" stroke-width="3" stroke-linecap="round" stroke-linejoin="round"/>
<path d="M6.875 18.25L11.75 13.375L15 16.625L19.875 11.75L23.125 15" stroke="black" stroke-opacity="0.2" stroke-width="3" stroke-linecap="round" stroke-linejoin="round"/>
</svg>
