<svg width="26" height="26" viewBox="0 0 26 26" fill="none" xmlns="http://www.w3.org/2000/svg">
<path d="M21.6667 0C22.8159 0 23.9181 0.456546 24.7308 1.2692C25.5435 2.08186 26 3.18406 26 4.33333V21.6667C26 22.8159 25.5435 23.9181 24.7308 24.7308C23.9181 25.5435 22.8159 26 21.6667 26H4.33333C3.18406 26 2.08186 25.5435 1.2692 24.7308C0.456546 23.9181 0 22.8159 0 21.6667V4.33333C0 3.18406 0.456546 2.08186 1.2692 1.2692C2.08186 0.456546 3.18406 0 4.33333 0H21.6667ZM18.3546 9.08989C18.0837 8.8191 17.7163 8.66698 17.3333 8.66698C16.9503 8.66698 16.583 8.8191 16.3121 9.08989L13 12.4006L11.1323 10.5343C10.8615 10.2635 10.4941 10.1114 10.1111 10.1114C9.7281 10.1114 9.36076 10.2635 9.08989 10.5343L4.75656 14.8677C4.48576 15.1385 4.33364 15.5059 4.33364 15.8889C4.33364 16.2719 4.48576 16.6392 4.75656 16.9101L4.89233 17.03C5.17025 17.2456 5.51728 17.3524 5.86832 17.3303C6.21935 17.3082 6.55028 17.1588 6.799 16.9101L10.1111 13.5994L11.9788 15.4657L12.1146 15.5856C12.3925 15.8011 12.7395 15.9079 13.0905 15.8858C13.4416 15.8638 13.7725 15.7144 14.0212 15.4657L17.3333 12.155L19.201 14.0212C19.4734 14.2843 19.8383 14.4299 20.217 14.4266C20.5958 14.4233 20.958 14.2714 21.2258 14.0036C21.4937 13.7358 21.6456 13.3735 21.6489 12.9948C21.6522 12.6161 21.5066 12.2512 21.2434 11.9788L18.3546 9.08989Z" fill="black"/>
</svg>
