<svg width="28" height="32" viewBox="0 0 28 32" fill="none" xmlns="http://www.w3.org/2000/svg">
<path d="M24.4997 7.99985L22.4853 10.0143M22.4853 10.0143C20.2348 7.76386 17.1826 6.49958 14 6.49958C10.8174 6.49958 7.76516 7.76386 5.51472 10.0143C3.26428 12.2647 2 15.317 2 18.4996C2 21.6822 3.26428 24.7344 5.51472 26.9849C7.76516 29.2353 10.8174 30.4996 14 30.4996C17.1826 30.4996 20.2348 29.2353 22.4853 26.9849C24.7357 24.7344 26 21.6822 26 18.4996C26 15.317 24.7357 12.2647 22.4853 10.0143ZM14 12.4997V18.4996M9.50012 2H18.4999" stroke="black" stroke-opacity="0.2" stroke-width="3" stroke-linecap="round" stroke-linejoin="round"/>
</svg>
