<svg width="26" height="30" viewBox="0 0 26 30" fill="none" xmlns="http://www.w3.org/2000/svg">
<path fill-rule="evenodd" clip-rule="evenodd" d="M7.22222 1.42864C7.22222 1.04974 7.3744 0.68636 7.64529 0.418438C7.91618 0.150517 8.28358 0 8.66667 0H17.3333C17.7164 0 18.0838 0.150517 18.3547 0.418438C18.6256 0.68636 18.7778 1.04974 18.7778 1.42864C18.7778 1.80754 18.6256 2.17092 18.3547 2.43884C18.0838 2.70676 17.7164 2.85728 17.3333 2.85728H8.66667C8.28358 2.85728 7.91618 2.70676 7.64529 2.43884C7.3744 2.17092 7.22222 1.80754 7.22222 1.42864ZM4.86547e-08 17.1437C-0.000211723 14.7223 0.69089 12.35 1.99376 10.3C3.29662 8.24993 5.1583 6.60542 7.36449 5.55575C9.57069 4.50607 12.0317 4.09388 14.4643 4.36663C16.8969 4.63938 19.2022 5.58598 21.1149 7.09747L22.0899 6.13314C22.2231 5.99669 22.3825 5.88786 22.5587 5.81298C22.735 5.73811 22.9245 5.6987 23.1163 5.69705C23.3081 5.6954 23.4983 5.73155 23.6758 5.80338C23.8533 5.87521 24.0146 5.98129 24.1502 6.11543C24.2859 6.24957 24.3931 6.40908 24.4657 6.58466C24.5384 6.76023 24.5749 6.94835 24.5732 7.13805C24.5716 7.32774 24.5317 7.51521 24.456 7.68951C24.3803 7.8638 24.2703 8.02145 24.1323 8.15323L23.1573 9.11757C24.4533 10.7223 25.3418 12.6108 25.7484 14.6249C26.155 16.639 26.0678 18.7201 25.4942 20.694C24.9206 22.6679 23.8772 24.4772 22.4514 25.9704C21.0256 27.4637 19.2589 28.5973 17.2992 29.2765C15.3395 29.9558 13.2437 30.1608 11.1875 29.8744C9.13117 29.588 7.17416 28.8186 5.48025 27.6306C3.78635 26.4426 2.40483 24.8705 1.45137 23.046C0.497901 21.2214 0.000224899 19.1975 4.86547e-08 17.1437ZM14.4444 11.4291C14.4444 11.0502 14.2923 10.6868 14.0214 10.4189C13.7505 10.151 13.3831 10.0005 13 10.0005C12.6169 10.0005 12.2495 10.151 11.9786 10.4189C11.7077 10.6868 11.5556 11.0502 11.5556 11.4291V17.1437C11.5556 17.5225 11.7077 17.8859 11.9786 18.1539C12.2495 18.4218 12.6169 18.5723 13 18.5723C13.3831 18.5723 13.7505 18.4218 14.0214 18.1539C14.2923 17.8859 14.4444 17.5225 14.4444 17.1437V11.4291Z" fill="black"/>
</svg>
